<?xml version="1.0" encoding="UTF-8"?> <svg xmlns="http://www.w3.org/2000/svg" width="1440" height="2332" viewBox="0 0 1440 2332" fill="none"> <g clip-path="url(#clip0_214_1172)"> <g filter="url(#filter0_i_214_1172)"> <path fill-rule="evenodd" clip-rule="evenodd" d="M-48.608 1473.84L-74.7229 1301.27C-74.7229 1301.27 -98.9578 778.338 305.866 657.162C504.976 597.562 640.178 577.703 745.537 562.226C854.391 546.237 931.388 534.927 1014.1 489.304C1141.67 418.932 1178.57 310.858 1211.61 214.116C1249.4 103.424 1282.13 7.56826 1439.83 0V1165.82C1439.83 1165.82 1439.96 1166.06 1440.2 1166.52C1448.61 1167.64 1457.06 1168.77 1465.57 1169.9L1482.89 1284.39C1491.78 1323.21 1496.62 1367.37 1489.75 1410.14C1480.18 1555.34 1424.02 1883.75 1115.75 1976.05C832.929 2060.73 803.329 2125.6 778.407 2180.21C768.126 2202.74 758.641 2223.53 732.502 2243.24C600.393 2342.88 479.608 2304.75 352.328 2264.57C242.448 2229.88 127.728 2193.67 -3.29614 2243.24C-3.29614 1987.94 -11.7217 1782.37 -15.378 1618.24C-42.6436 1542.04 -48.6099 1473.84 -48.6099 1473.84H-48.608Z" fill="#FAFAFA"></path> </g> </g> <defs> <filter id="filter0_i_214_1172" x="-75" y="0" width="1568" height="2310.52" filterUnits="userSpaceOnUse" color-interpolation-filters="sRGB"> <feFlood flood-opacity="0" result="BackgroundImageFix"></feFlood> <feBlend mode="normal" in="SourceGraphic" in2="BackgroundImageFix" result="shape"></feBlend> <feColorMatrix in="SourceAlpha" type="matrix" values="0 0 0 0 0 0 0 0 0 0 0 0 0 0 0 0 0 0 127 0" result="hardAlpha"></feColorMatrix> <feOffset dy="4"></feOffset> <feGaussianBlur stdDeviation="25"></feGaussianBlur> <feComposite in2="hardAlpha" operator="arithmetic" k2="-1" k3="1"></feComposite> <feColorMatrix type="matrix" values="0 0 0 0 0.741176 0 0 0 0 0.741176 0 0 0 0 0.741176 0 0 0 0.1 0"></feColorMatrix> <feBlend mode="normal" in2="shape" result="effect1_innerShadow_214_1172"></feBlend> </filter> <clipPath id="clip0_214_1172"> <rect width="1440" height="2332" fill="white"></rect> </clipPath> </defs> </svg> 